<svg width="24" height="24" viewBox="0 0 24 24" fill="none" xmlns="http://www.w3.org/2000/svg">
  <rect width="24" height="24" rx="4" fill="#C2002F"/>
  <path d="M6 16.5V11.5C6 10.9477 6.44772 10.5 7 10.5H12C12.5523 10.5 13 10.9477 13 11.5V19.5C13 20.0523 12.5523 20.5 12 20.5H7C6.44772 20.5 6 20.0523 6 19.5V16.5ZM6 16.5H3.5C3.22386 16.5 3 16.2761 3 16V12C3 11.7239 3.22386 11.5 3.5 11.5H6M13 13.5H17C17.5523 13.5 18 13.0523 18 12.5V7.5C18 6.94772 17.5523 6.5 17 6.5H12C11.4477 6.5 11 6.94772 11 7.5V10.5M13 13.5H20.5C20.7761 13.5 21 13.2761 21 13V8C21 7.72386 20.7761 7.5 20.5 7.5H18M13 13.5V10.5" stroke="white" stroke-width="2" stroke-linecap="round" stroke-linejoin="round"/>
</svg>