<svg xmlns="http://www.w3.org/2000/svg" xmlns:xlink="http://www.w3.org/1999/xlink" width="280" zoomAndPan="magnify" viewBox="0 0 210 119.999999" height="160" preserveAspectRatio="xMidYMid meet" version="1.2"><defs><clipPath id="3d63234bb3"><path d="M 20.207031 0 L 189.792969 0 L 189.792969 120 L 20.207031 120 Z M 20.207031 0 "/></clipPath><clipPath id="638e31c812"><path d="M 48.511719 5.511719 L 112 5.511719 L 112 89 L 48.511719 89 Z M 48.511719 5.511719 "/></clipPath><clipPath id="92806fb324"><path d="M 111.996094 5.589844 L 111.996094 41.304688 L 92.542969 71.480469 L 92.542969 55.808594 L 68.015625 55.808594 L 68.015625 89 L 48.5625 89 L 48.5625 39.542969 L 68.015625 5.597656 L 68.015625 38.78125 L 92.542969 38.78125 L 92.542969 5.589844 Z M 111.996094 5.589844 "/></clipPath><clipPath id="15d1ffda2b"><path d="M 95.625 28.222656 L 161.554688 28.222656 L 161.554688 114.828125 L 95.625 114.828125 Z M 95.625 28.222656 "/></clipPath><clipPath id="3ae8bfe909"><path d="M 144.386719 65.070312 L 122.304688 59.144531 C 118.988281 58.304688 116.964844 56.292969 116.964844 52.378906 C 116.964844 46.433594 121.484375 43.945312 128.59375 43.945312 C 137.144531 43.945312 140.230469 48.578125 140.230469 54.148438 L 140.230469 55.574219 L 159.097656 55.574219 L 159.097656 53.5625 C 159.097656 38.367188 147.238281 28.277344 128.59375 28.277344 C 128.4375 28.277344 125.699219 28.40625 125.699219 28.40625 L 100.871094 67.878906 C 104.085938 72.265625 109.398438 74.894531 116.722656 76.707031 L 137.492188 81.925781 C 141.648438 82.996094 143.195312 85.605469 143.195312 89.285156 C 143.195312 95.695312 137.621094 99.132812 129.191406 99.132812 C 119.816406 99.132812 115.304688 94.859375 115.304688 87.859375 L 115.304688 86.203125 L 95.730469 86.203125 L 95.730469 88.457031 C 95.730469 105.191406 109.128906 114.683594 129.078125 114.683594 C 133.457031 114.683594 137.597656 114.132812 141.386719 113.089844 L 161.4375 78.097656 C 159.003906 71.84375 153.613281 67.550781 144.386719 65.070312 "/></clipPath></defs><g id="7383b4d8b3"><rect x="0" width="210" y="0" height="119.999999" style="fill:#ffffff;fill-opacity:1;stroke:none;"/><rect x="0" width="210" y="0" height="119.999999" style="fill:#d02027;fill-opacity:1;stroke:none;"/><g clip-rule="nonzero" clip-path="url(#3d63234bb3)"><path style=" stroke:none;fill-rule:nonzero;fill:#d02027;fill-opacity:1;" d="M 19.359375 -25.503906 L 190.703125 -25.503906 L 190.703125 145.503906 L 19.359375 145.503906 Z M 19.359375 -25.503906 "/></g><g clip-rule="nonzero" clip-path="url(#638e31c812)"><g clip-rule="nonzero" clip-path="url(#92806fb324)"><path style=" stroke:none;fill-rule:nonzero;fill:#ffffff;fill-opacity:1;" d="M 19.359375 -25.503906 L 190.703125 -25.503906 L 190.703125 145.503906 L 19.359375 145.503906 Z M 19.359375 -25.503906 "/></g></g><g clip-rule="nonzero" clip-path="url(#15d1ffda2b)"><g clip-rule="nonzero" clip-path="url(#3ae8bfe909)"><path style=" stroke:none;fill-rule:nonzero;fill:#ffffff;fill-opacity:1;" d="M 19.359375 -25.503906 L 190.703125 -25.503906 L 190.703125 145.503906 L 19.359375 145.503906 Z M 19.359375 -25.503906 "/></g></g></g></svg>